<svg width="663" height="350" viewBox="0 0 663 350" fill="none" xmlns="http://www.w3.org/2000/svg">
<path d="M694.458 421.86C694.458 421.86 630.45 168.137 561.965 112.758C493.48 57.3788 419.773 132.368 326.275 104.744C232.777 77.1201 150.378 -226 150.378 -226" stroke="#563911" stroke-width="35"/>
<path d="M225.662 -3.40314C225.207 -4.32916 224.968 -5.25047 224.943 -6.16706C224.924 -7.08676 225.137 -7.92737 225.582 -8.68887C226.03 -9.44403 226.732 -10.0567 227.69 -10.5269C228.515 -10.9318 229.271 -11.1064 229.96 -11.0509C230.648 -10.9953 231.28 -10.7743 231.856 -10.3877C232.431 -10.0012 232.962 -9.51386 233.447 -8.92574C233.933 -8.33762 234.386 -7.71812 234.808 -7.06726C235.34 -6.2418 235.771 -5.57191 236.102 -5.05758C236.44 -4.54637 236.745 -4.20445 237.019 -4.03183C237.293 -3.8592 237.601 -3.85697 237.943 -4.02513L238.01 -4.05783C238.841 -4.46577 239.369 -5.01652 239.595 -5.71009C239.825 -6.39731 239.714 -7.20076 239.262 -8.12045C238.792 -9.07818 238.209 -9.72863 237.513 -10.0718C236.827 -10.4117 236.175 -10.5602 235.559 -10.5173L234.855 -13.4897C235.899 -13.6085 236.843 -13.4974 237.687 -13.1563C238.541 -12.812 239.288 -12.301 239.927 -11.6233C240.574 -10.9486 241.113 -10.1705 241.546 -9.2889C241.832 -8.70538 242.066 -8.05272 242.247 -7.33092C242.438 -6.60589 242.493 -5.86921 242.412 -5.12087C242.333 -4.36619 242.048 -3.63987 241.557 -2.94191C241.071 -2.24706 240.296 -1.63806 239.23 -1.11489L229.526 3.64961L228.162 0.871539L230.16 -0.109389L230.104 -0.223555C229.646 -0.226877 229.149 -0.32528 228.613 -0.518765C228.077 -0.712251 227.55 -1.03997 227.032 -1.50193C226.514 -1.96389 226.057 -2.59763 225.662 -3.40314ZM228.249 -3.90579C228.635 -3.11931 229.121 -2.52328 229.705 -2.11772C230.293 -1.70582 230.909 -1.47699 231.554 -1.43124C232.208 -1.38226 232.823 -1.49946 233.4 -1.78284L235.284 -2.70771C235.133 -2.75937 234.941 -2.90928 234.709 -3.15744C234.486 -3.40238 234.253 -3.69321 234.009 -4.02995C233.771 -4.36979 233.541 -4.70168 233.319 -5.02561C233.104 -5.35266 232.922 -5.62573 232.776 -5.84484C232.435 -6.3624 232.07 -6.80902 231.681 -7.18473C231.295 -7.55409 230.879 -7.79884 230.435 -7.91899C230 -8.0359 229.528 -7.9698 229.021 -7.72067C228.317 -7.37501 227.912 -6.85339 227.805 -6.15579C227.706 -5.46131 227.853 -4.71131 228.249 -3.90579Z" fill="white"/>
<path d="M256.005 18.9625L238.875 21.4995L237.264 18.5149L248.781 5.57821L250.397 8.57218L241.331 18.1506L241.411 18.2998L254.389 15.9685L256.005 18.9625Z" fill="white"/>
<path d="M243.162 29.2371L257.31 21.1824L258.878 23.9363L244.73 31.9911L243.162 29.2371ZM260.285 21.3304C260.012 20.8514 259.937 20.3491 260.061 19.8235C260.194 19.3004 260.485 18.9113 260.933 18.6561C261.387 18.3974 261.87 18.346 262.382 18.502C262.903 18.6605 263.3 18.9793 263.573 19.4583C263.845 19.9372 263.915 20.4382 263.782 20.9612C263.658 21.4868 263.37 21.879 262.915 22.1377C262.467 22.3929 261.982 22.4412 261.461 22.2827C260.949 22.1267 260.557 21.8093 260.285 21.3304Z" fill="white"/>
<path d="M249.713 41.0866C249.031 39.9633 248.709 38.7865 248.747 37.5563C248.795 36.3285 249.201 35.1394 249.966 33.9889C250.74 32.8409 251.879 31.8102 253.383 30.8969C254.887 29.9837 256.325 29.4531 257.699 29.3052C259.076 29.1633 260.316 29.3609 261.419 29.8978C262.522 30.4348 263.413 31.262 264.092 32.3793C264.616 33.2429 264.893 34.0254 264.922 34.7269C264.961 35.4308 264.878 36.0432 264.674 36.5641C264.473 37.0911 264.277 37.5242 264.086 37.8633L264.185 38.0263L271.079 33.8397L272.724 36.5483L254.171 47.8155L252.565 45.1703L254.73 43.8554L254.593 43.6289C254.198 43.6456 253.716 43.6154 253.149 43.5385C252.585 43.4676 252 43.2526 251.393 42.8935C250.786 42.5344 250.226 41.9321 249.713 41.0866ZM252.386 40.2816C252.859 41.0607 253.464 41.5943 254.201 41.8824C254.948 42.1728 255.774 42.2333 256.68 42.0636C257.589 41.9 258.533 41.5211 259.511 40.9269C260.478 40.3401 261.239 39.6877 261.795 38.9698C262.351 38.2519 262.668 37.5013 262.746 36.718C262.824 35.9348 262.623 35.1476 262.143 34.3564C261.648 33.5411 261.024 32.99 260.271 32.7032C259.518 32.4164 258.692 32.356 257.792 32.522C256.896 32.694 255.99 33.0588 255.072 33.6163C254.142 34.1811 253.389 34.828 252.815 35.5569C252.241 36.2859 251.902 37.0541 251.797 37.8618C251.702 38.6717 251.898 39.4784 252.386 40.2816Z" fill="white"/>
<path d="M258.851 55.6013C258.275 54.7454 257.913 53.8651 257.764 52.9604C257.621 52.0517 257.718 51.19 258.055 50.3752C258.397 49.5663 259.01 48.864 259.895 48.2683C260.657 47.7554 261.383 47.4799 262.073 47.4416C262.762 47.4033 263.418 47.5366 264.041 47.8416C264.664 48.1465 265.255 48.5575 265.816 49.0743C266.377 49.5912 266.91 50.1435 267.417 50.7312C268.055 51.477 268.573 52.0823 268.971 52.5469C269.374 53.0077 269.724 53.305 270.018 53.4389C270.313 53.5729 270.618 53.5333 270.935 53.3203L270.996 53.2789C271.764 52.7621 272.213 52.1447 272.343 51.4269C272.478 50.7149 272.259 49.934 271.686 49.084C271.091 48.1988 270.425 47.6334 269.689 47.3877C268.963 47.144 268.297 47.0852 267.692 47.2113L266.592 44.3617C267.61 44.1025 268.56 44.0846 269.443 44.3081C270.336 44.5335 271.145 44.9386 271.871 45.5233C272.602 46.1041 273.242 46.8019 273.791 47.6168C274.154 48.1561 274.474 48.771 274.751 49.4616C275.038 50.1541 275.192 50.8765 275.213 51.629C275.238 52.3873 275.054 53.1455 274.662 53.9037C274.275 54.6579 273.589 55.3664 272.605 56.0292L263.636 62.0651L261.908 59.4976L263.754 58.2549L263.683 58.1494C263.229 58.2082 262.723 58.1781 262.166 58.059C261.609 57.9399 261.043 57.6867 260.467 57.2992C259.891 56.9117 259.352 56.3457 258.851 55.6013ZM261.346 54.7526C261.835 55.4795 262.397 56.0042 263.032 56.3267C263.67 56.6551 264.311 56.7983 264.956 56.7563C265.61 56.7162 266.204 56.5167 266.738 56.1577L268.479 54.986C268.322 54.9553 268.112 54.8328 267.848 54.6184C267.594 54.4059 267.324 54.1494 267.036 53.8488C266.755 53.5443 266.482 53.2466 266.218 52.9558C265.96 52.661 265.743 52.415 265.568 52.2179C265.16 51.7513 264.738 51.3582 264.302 51.0387C263.869 50.7251 263.425 50.5389 262.968 50.4802C262.521 50.4233 262.063 50.5527 261.594 50.8683C260.943 51.3062 260.612 51.8779 260.602 52.5835C260.597 53.2851 260.845 54.0081 261.346 54.7526Z" fill="white"/>
<path d="M277.331 73.5597C276.794 72.8946 276.466 72.1563 276.346 71.3447C276.232 70.5287 276.316 69.7337 276.599 68.9599C276.887 68.1916 277.363 67.5387 278.028 67.0014C278.699 66.4597 279.437 66.1311 280.243 66.0158C281.059 65.9015 281.851 65.9881 282.62 66.2758C283.393 66.5589 284.049 67.033 284.586 67.6981C285.128 68.3686 285.454 69.1091 285.564 69.9197C285.684 70.7313 285.6 71.5213 285.312 72.2896C285.034 73.059 284.56 73.7146 283.89 74.2563C283.225 74.7936 282.484 75.1194 281.668 75.2337C280.857 75.3535 280.064 75.2718 279.29 74.9886C278.526 74.7065 277.873 74.2302 277.331 73.5597Z" fill="white"/>
<path d="M290.58 94.3005C289.408 93.2046 288.634 92.0105 288.256 90.7183C287.888 89.4257 287.902 88.108 288.297 86.7652C288.703 85.422 289.482 84.1338 290.636 82.9008C291.776 81.6832 293.007 80.8225 294.33 80.3187C295.658 79.8197 296.976 79.6935 298.284 79.94C299.597 80.1914 300.806 80.8337 301.91 81.8669C302.58 82.4945 303.127 83.2137 303.549 84.0246C303.97 84.8354 304.209 85.7123 304.266 86.6553C304.322 87.5982 304.14 88.5841 303.719 89.6129C303.303 90.6365 302.591 91.6874 301.582 92.7657L300.814 93.586L291.365 84.7438L292.987 83.0102L300.169 89.7307C300.738 89.1219 301.119 88.4669 301.311 87.7656C301.507 87.0592 301.509 86.3593 301.316 85.6658C301.128 84.9772 300.735 84.3529 300.137 83.7928C299.486 83.1845 298.769 82.8134 297.985 82.6794C297.211 82.5452 296.453 82.6103 295.712 82.8748C294.981 83.1391 294.338 83.5678 293.782 84.1611L292.515 85.5154C291.772 86.31 291.278 87.1162 291.036 87.9341C290.798 88.7568 290.794 89.5518 291.025 90.319C291.26 91.081 291.716 91.7783 292.391 92.4107C292.83 92.8211 293.288 93.1334 293.765 93.3475C294.247 93.5565 294.737 93.6577 295.237 93.6511C295.737 93.6445 296.23 93.5206 296.717 93.2795L298.538 95.7237C297.759 96.2044 296.915 96.4748 296.008 96.535C295.11 96.5947 294.195 96.4401 293.263 96.0711C292.341 95.7018 291.446 95.1116 290.58 94.3005Z" fill="white"/>
<path d="M315.281 97.4633L312.626 96.2557C312.735 95.8849 312.776 95.4886 312.748 95.0668C312.727 94.649 312.596 94.2287 312.355 93.8059C312.114 93.3831 311.722 92.9856 311.181 92.6134C310.441 92.1051 309.71 91.8469 308.987 91.8386C308.268 91.8246 307.73 92.0767 307.374 92.5949C307.066 93.0433 306.984 93.5184 307.128 94.0202C307.271 94.522 307.653 95.1144 308.273 95.7974L310.068 97.7513C311.106 98.885 311.724 99.957 311.921 100.967C312.119 101.977 311.891 102.957 311.239 103.906C310.687 104.71 309.962 105.266 309.063 105.575C308.175 105.882 307.196 105.929 306.125 105.716C305.059 105.506 303.985 105.03 302.902 104.285C301.4 103.253 300.394 102.09 299.885 100.797C299.38 99.4985 299.428 98.1812 300.029 96.8452L302.818 98.1957C302.523 98.9618 302.504 99.6818 302.761 100.356C303.022 101.024 303.545 101.628 304.331 102.168C305.187 102.757 305.994 103.049 306.75 103.046C307.511 103.037 308.069 102.774 308.425 102.255C308.713 101.836 308.798 101.376 308.68 100.874C308.568 100.377 308.241 99.8353 307.7 99.2495L305.772 97.1908C304.716 96.0451 304.102 94.9545 303.93 93.9192C303.765 92.8879 304.01 91.8948 304.666 90.9398C305.211 90.1478 305.908 89.6069 306.759 89.3171C307.61 89.0273 308.539 88.9846 309.548 89.1889C310.56 89.3874 311.57 89.8329 312.577 90.5252C314.027 91.5217 314.953 92.6206 315.353 93.8218C315.758 95.0172 315.734 96.231 315.281 97.4633Z" fill="white"/>
<path d="M317.265 112.004C315.799 111.428 314.666 110.6 313.869 109.519C313.08 108.435 312.634 107.193 312.531 105.794C312.428 104.395 312.675 102.935 313.272 101.416C313.877 99.8773 314.7 98.633 315.741 97.6833C316.785 96.727 317.964 96.1235 319.277 95.8727C320.59 95.622 321.96 95.7771 323.387 96.3379C324.538 96.7901 325.48 97.407 326.213 98.1885C326.949 98.9634 327.443 99.8409 327.695 100.821C327.955 101.803 327.937 102.825 327.641 103.886L324.771 102.758C324.892 101.985 324.771 101.232 324.407 100.496C324.049 99.7637 323.4 99.2126 322.46 98.8431C321.638 98.52 320.832 98.4541 320.044 98.6452C319.264 98.8323 318.547 99.2565 317.892 99.9179C317.24 100.573 316.702 101.439 316.278 102.518C315.844 103.623 315.637 104.642 315.657 105.576C315.677 106.51 315.907 107.318 316.345 107.999C316.79 108.682 317.43 109.188 318.266 109.516C318.825 109.736 319.371 109.833 319.905 109.808C320.448 109.778 320.95 109.63 321.412 109.363C321.88 109.1 322.284 108.719 322.623 108.222L325.494 109.35C325.003 110.289 324.341 111.038 323.506 111.598C322.671 112.159 321.719 112.483 320.652 112.572C319.591 112.664 318.462 112.475 317.265 112.004Z" fill="white"/>
<path d="M333.241 116.348C331.747 116.039 330.513 115.428 329.54 114.512C328.567 113.597 327.9 112.461 327.538 111.102C327.177 109.743 327.166 108.24 327.506 106.593C327.847 104.939 328.454 103.556 329.325 102.445C330.197 101.333 331.26 100.55 332.516 100.095C333.771 99.6395 335.146 99.5661 336.641 99.8746C338.136 100.183 339.369 100.795 340.342 101.71C341.315 102.625 341.981 103.765 342.342 105.131C342.702 106.497 342.711 108.007 342.37 109.661C342.03 111.308 341.425 112.683 340.555 113.788C339.685 114.893 338.622 115.673 337.367 116.128C336.111 116.583 334.736 116.656 333.241 116.348ZM333.789 113.744C334.758 113.944 335.614 113.854 336.356 113.473C337.098 113.093 337.71 112.508 338.19 111.72C338.677 110.933 339.026 110.027 339.237 109.003C339.447 107.986 339.484 107.02 339.349 106.104C339.221 105.183 338.893 104.398 338.363 103.747C337.834 103.097 337.085 102.672 336.116 102.472C335.14 102.27 334.277 102.363 333.526 102.749C332.782 103.137 332.166 103.727 331.678 104.521C331.198 105.309 330.853 106.212 330.643 107.229C330.431 108.254 330.39 109.223 330.519 110.137C330.655 111.052 330.988 111.832 331.519 112.475C332.057 113.12 332.814 113.543 333.789 113.744Z" fill="white"/>
<path d="M353.161 102.497L352.882 105.026L344.043 104.051L344.322 101.522L353.161 102.497ZM347.12 97.9071L350.27 98.2546L348.582 113.562C348.514 114.173 348.555 114.643 348.703 114.972C348.853 115.294 349.065 115.527 349.341 115.671C349.624 115.809 349.938 115.897 350.282 115.935C350.535 115.963 350.758 115.97 350.951 115.956C351.145 115.942 351.295 115.93 351.403 115.92L351.685 118.585C351.495 118.635 351.227 118.677 350.882 118.71C350.536 118.75 350.11 118.746 349.604 118.697C348.774 118.619 348.017 118.387 347.335 117.999C346.653 117.611 346.126 117.069 345.755 116.374C345.384 115.679 345.252 114.844 345.36 113.867L347.12 97.9071Z" fill="white"/>
<path d="M354.477 118.859L355.351 102.602L358.515 102.772L357.642 119.029L354.477 118.859ZM357.084 100.18C356.533 100.15 356.071 99.9414 355.695 99.5533C355.327 99.1585 355.157 98.7036 355.185 98.1885C355.213 97.6664 355.431 97.2323 355.838 96.8863C356.254 96.5336 356.736 96.372 357.287 96.4016C357.837 96.4311 358.296 96.6433 358.664 97.0381C359.04 97.4262 359.213 97.8814 359.185 98.4035C359.158 98.9185 358.936 99.3524 358.521 99.7052C358.113 100.051 357.634 100.209 357.084 100.18Z" fill="white"/>
<path d="M373.833 106.767L370.969 107.318C370.843 106.952 370.647 106.605 370.381 106.277C370.122 105.949 369.772 105.682 369.33 105.477C368.889 105.271 368.34 105.173 367.683 105.183C366.786 105.196 366.04 105.408 365.445 105.82C364.851 106.224 364.558 106.741 364.567 107.37C364.575 107.914 364.783 108.349 365.19 108.675C365.598 109.001 366.252 109.264 367.152 109.462L369.747 110.018C371.25 110.342 372.374 110.859 373.119 111.569C373.865 112.279 374.246 113.209 374.263 114.361C374.277 115.336 374.007 116.209 373.453 116.98C372.906 117.745 372.134 118.35 371.138 118.795C370.148 119.241 368.996 119.473 367.682 119.493C365.859 119.519 364.366 119.153 363.203 118.393C362.04 117.625 361.317 116.523 361.034 115.086L364.09 114.574C364.293 115.37 364.694 115.968 365.293 116.369C365.892 116.763 366.669 116.953 367.623 116.939C368.661 116.924 369.488 116.696 370.104 116.256C370.719 115.809 371.022 115.271 371.013 114.642C371.005 114.133 370.808 113.709 370.422 113.368C370.042 113.027 369.462 112.774 368.683 112.609L365.918 112.046C364.394 111.722 363.263 111.187 362.524 110.442C361.792 109.697 361.418 108.745 361.401 107.586C361.387 106.625 361.643 105.78 362.169 105.052C362.696 104.323 363.429 103.751 364.37 103.334C365.311 102.91 366.392 102.69 367.614 102.672C369.374 102.646 370.764 103.007 371.785 103.755C372.807 104.496 373.489 105.5 373.833 106.767Z" fill="white"/>
<path d="M377.338 119.043L375.457 102.872L378.478 102.521L378.784 105.153L378.984 105.129C379.218 104.199 379.688 103.44 380.395 102.853C381.101 102.258 381.988 101.899 383.054 101.775C384.135 101.649 385.07 101.797 385.859 102.217C386.654 102.637 387.279 103.268 387.733 104.112L387.901 104.092C388.187 103.184 388.721 102.425 389.504 101.815C390.286 101.197 391.259 100.821 392.424 100.685C393.891 100.515 395.141 100.835 396.174 101.647C397.215 102.458 397.843 103.79 398.058 105.642L399.32 116.486L396.172 116.852L394.945 106.303C394.817 105.208 394.427 104.45 393.773 104.028C393.119 103.606 392.379 103.443 391.55 103.54C390.526 103.659 389.766 104.067 389.271 104.765C388.775 105.456 388.584 106.293 388.698 107.275L389.897 117.582L386.76 117.947L385.51 107.198C385.408 106.321 385.052 105.647 384.442 105.177C383.833 104.708 383.09 104.524 382.212 104.626C381.616 104.695 381.083 104.917 380.614 105.292C380.152 105.659 379.799 106.137 379.554 106.728C379.317 107.317 379.241 107.977 379.326 108.707L380.485 118.677L377.338 119.043Z" fill="white"/>
<path d="M410.075 114.697C408.576 114.982 407.202 114.887 405.954 114.412C404.706 113.937 403.655 113.141 402.803 112.023C401.95 110.905 401.367 109.519 401.053 107.867C400.737 106.208 400.77 104.699 401.152 103.339C401.533 101.979 402.218 100.849 403.205 99.9494C404.192 99.0498 405.435 98.4574 406.934 98.1724C408.434 97.8874 409.807 97.9822 411.056 98.457C412.304 98.9317 413.355 99.7317 414.209 100.857C415.063 101.982 415.648 103.374 415.963 105.033C416.277 106.685 416.243 108.188 415.86 109.541C415.477 110.894 414.792 112.02 413.805 112.92C412.818 113.819 411.575 114.412 410.075 114.697ZM409.589 112.081C410.561 111.897 411.317 111.487 411.858 110.852C412.399 110.216 412.741 109.443 412.884 108.531C413.034 107.618 413.012 106.648 412.817 105.62C412.623 104.6 412.288 103.692 411.814 102.898C411.344 102.095 410.741 101.494 410.004 101.095C409.266 100.696 408.411 100.589 407.439 100.773C406.461 100.96 405.698 101.374 405.151 102.018C404.612 102.66 404.268 103.441 404.119 104.361C403.976 105.273 404.001 106.239 404.195 107.259C404.39 108.287 404.722 109.198 405.19 109.994C405.664 110.788 406.27 111.382 407.006 111.774C407.749 112.165 408.61 112.267 409.589 112.081Z" fill="white"/>
<path d="M433.391 105.36C432.557 105.546 431.749 105.512 430.969 105.259C430.187 104.999 429.512 104.571 428.945 103.973C428.384 103.375 428.01 102.658 427.824 101.823C427.636 100.982 427.67 100.175 427.924 99.4012C428.184 98.6192 428.614 97.9479 429.213 97.3871C429.81 96.8195 430.526 96.4426 431.36 96.2564C432.202 96.0687 433.01 96.1056 433.785 96.367C434.565 96.62 435.236 97.046 435.797 97.6448C436.363 98.2352 436.74 98.9511 436.927 99.7925C437.113 100.627 437.077 101.435 436.817 102.217C436.564 102.997 436.138 103.671 435.541 104.239C434.949 104.798 434.233 105.172 433.391 105.36Z" fill="white"/>
<path d="M448.601 89.4484L451.705 88.8115L455.19 105.797C455.409 106.863 455.399 107.803 455.162 108.616C454.932 109.428 454.479 110.102 453.802 110.637C453.133 111.171 452.248 111.551 451.147 111.777C451.037 111.799 450.933 111.821 450.836 111.841C450.732 111.862 450.624 111.881 450.512 111.896L449.965 109.228C450.062 109.208 450.148 109.19 450.224 109.175C450.293 109.161 450.373 109.144 450.463 109.126C451.197 108.975 451.686 108.669 451.93 108.208C452.183 107.752 452.233 107.154 452.081 106.413L448.601 89.4484ZM449.633 86.6725C449.093 86.7832 448.592 86.6984 448.131 86.418C447.675 86.1292 447.395 85.7322 447.291 85.2269C447.186 84.7147 447.287 84.2396 447.594 83.8016C447.906 83.3552 448.333 83.0767 448.873 82.9659C449.412 82.8551 449.91 82.9441 450.366 83.2329C450.828 83.5133 451.111 83.9096 451.216 84.4218C451.32 84.9271 451.215 85.4029 450.903 85.8493C450.596 86.2873 450.173 86.5617 449.633 86.6725Z" fill="white"/>
<path d="M466.146 103.01C464.642 103.266 463.27 103.144 462.031 102.645C460.793 102.146 459.758 101.33 458.927 100.195C458.096 99.0606 457.54 97.6644 457.258 96.0065C456.975 94.3416 457.038 92.833 457.446 91.4807C457.854 90.1285 458.56 89.0122 459.564 88.1319C460.569 87.2516 461.823 86.6836 463.328 86.4279C464.832 86.1721 466.204 86.2937 467.443 86.7927C468.681 87.2917 469.717 88.1119 470.549 89.2534C471.381 90.395 471.938 91.7981 472.221 93.463C472.503 95.1209 472.439 96.6225 472.03 97.9678C471.621 99.3131 470.914 100.426 469.91 101.306C468.905 102.186 467.651 102.754 466.146 103.01ZM465.711 100.386C466.686 100.22 467.45 99.8249 468.004 99.2005C468.557 98.5761 468.914 97.8094 469.075 96.9005C469.243 95.9904 469.239 95.0199 469.064 93.9889C468.89 92.965 468.573 92.0512 468.114 91.2477C467.661 90.436 467.069 89.8234 466.339 89.4099C465.61 88.9964 464.757 88.8725 463.782 89.0383C462.8 89.2053 462.029 89.605 461.47 90.2376C460.918 90.869 460.559 91.6432 460.392 92.5603C460.231 93.4692 460.238 94.4356 460.412 95.4596C460.587 96.4906 460.901 97.4084 461.353 98.2131C461.812 99.0166 462.406 99.6217 463.135 100.028C463.87 100.434 464.729 100.553 465.711 100.386Z" fill="white"/>
<path d="M489.227 83.5657L484.786 100.304L481.407 100.603L474.077 84.9101L477.466 84.6094L482.68 96.7237L482.849 96.7087L485.838 83.8665L489.227 83.5657Z" fill="white"/>
<path d="M500.532 100.305C498.929 100.246 497.561 99.8532 496.428 99.1257C495.303 98.3914 494.449 97.3878 493.866 96.1149C493.291 94.8352 493.034 93.3515 493.097 91.6639C493.158 89.9975 493.522 88.5402 494.191 87.292C494.866 86.0442 495.778 85.0843 496.927 84.4124C498.083 83.7407 499.416 83.4327 500.927 83.4882C501.845 83.522 502.729 83.7065 503.58 84.0418C504.43 84.3771 505.186 84.8821 505.847 85.5569C506.508 86.2317 507.017 87.0954 507.374 88.1479C507.732 89.1933 507.883 90.4539 507.829 91.9297L507.788 93.0524L494.855 92.577L494.943 90.2045L504.772 90.5658C504.802 89.7326 504.66 88.9885 504.345 88.3335C504.03 87.6714 503.572 87.1419 502.971 86.7451C502.378 86.3486 501.671 86.1352 500.852 86.1051C499.963 86.0724 499.178 86.2628 498.498 86.6762C497.825 87.0827 497.296 87.6289 496.91 88.3147C496.532 88.9938 496.328 89.7393 496.298 90.5513L496.23 92.4048C496.19 93.4922 496.347 94.4242 496.7 95.2009C497.06 95.9777 497.579 96.5801 498.256 97.008C498.934 97.4289 499.735 97.6563 500.66 97.6903C501.26 97.7124 501.81 97.6478 502.311 97.4965C502.812 97.3381 503.248 97.0926 503.621 96.7598C503.994 96.4271 504.285 96.01 504.494 95.5086L507.472 96.1589C507.2 97.0328 506.74 97.7901 506.095 98.431C505.456 99.0651 504.664 99.5486 503.719 99.8815C502.78 100.208 501.718 100.349 500.532 100.305Z" fill="white"/>
<path d="M511.939 100.371L516.141 84.6432L519.08 85.4285L518.396 87.9884L518.591 88.0404C519.15 87.261 519.866 86.7283 520.74 86.4425C521.615 86.1498 522.572 86.1421 523.61 86.4193C524.661 86.7002 525.476 87.1813 526.054 87.8625C526.64 88.5455 526.988 89.3627 527.1 90.314L527.264 90.3578C527.863 89.6184 528.639 89.1091 529.592 88.8296C530.546 88.5434 531.59 88.5516 532.723 88.8544C534.149 89.2356 535.194 89.9937 535.856 91.1288C536.525 92.2656 536.619 93.7351 536.137 95.5373L533.319 106.084L530.257 105.266L532.999 95.0059C533.283 93.941 533.199 93.0921 532.747 92.4592C532.294 91.8263 531.665 91.4023 530.86 91.187C529.863 90.9207 529.006 91.0209 528.289 91.4875C527.574 91.9473 527.089 92.6551 526.833 93.6108L524.155 103.635L521.103 102.82L523.897 92.3654C524.125 91.5121 524.042 90.7549 523.648 90.0938C523.254 89.4327 522.631 88.9882 521.777 88.7602C521.197 88.6051 520.62 88.6155 520.047 88.7914C519.482 88.9623 518.977 89.2772 518.533 89.7362C518.095 90.1971 517.781 90.7825 517.592 91.4924L515.001 101.189L511.939 100.371Z" fill="white"/>
<path d="M552.271 112.376C551.559 111.903 551.023 111.297 550.665 110.559C550.311 109.815 550.152 109.032 550.19 108.209C550.233 107.389 550.491 106.624 550.964 105.911C551.441 105.193 552.046 104.658 552.781 104.305C553.524 103.951 554.306 103.796 555.125 103.839C555.949 103.877 556.716 104.132 557.429 104.605C558.147 105.081 558.68 105.69 559.029 106.43C559.387 107.168 559.544 107.946 559.501 108.766C559.467 109.583 559.212 110.351 558.735 111.069C558.263 111.781 557.654 112.315 556.91 112.669C556.172 113.027 555.391 113.187 554.568 113.15C553.755 113.11 552.989 112.852 552.271 112.376Z" fill="white"/>
<path d="M582.183 114.277L566.779 129.57L564.547 127.321L579.951 112.028L582.183 114.277Z" fill="white"/>
<path d="M574.217 138.526C573.255 137.34 572.688 136.086 572.515 134.761C572.341 133.437 572.545 132.135 573.125 130.854C573.706 129.573 574.649 128.403 575.955 127.344C577.267 126.28 578.612 125.594 579.99 125.285C581.368 124.977 582.688 125.044 583.948 125.487C585.207 125.93 586.318 126.744 587.28 127.929C588.241 129.114 588.809 130.369 588.982 131.693C589.155 133.017 588.949 134.322 588.363 135.607C587.777 136.892 586.828 138.067 585.517 139.131C584.211 140.19 582.871 140.872 581.498 141.176C580.125 141.48 578.809 141.411 577.549 140.968C576.289 140.525 575.178 139.711 574.217 138.526ZM576.29 136.858C576.913 137.626 577.632 138.098 578.448 138.273C579.263 138.449 580.107 138.384 580.977 138.077C581.853 137.777 582.696 137.297 583.509 136.638C584.315 135.984 584.956 135.26 585.43 134.465C585.915 133.672 586.158 132.856 586.16 132.017C586.162 131.178 585.852 130.375 585.229 129.607C584.601 128.833 583.874 128.358 583.049 128.181C582.228 128.01 581.377 128.077 580.496 128.382C579.625 128.688 578.787 129.169 577.98 129.823C577.168 130.482 576.522 131.206 576.043 131.995C575.568 132.789 575.333 133.604 575.336 134.438C575.344 135.277 575.662 136.084 576.29 136.858Z" fill="white"/>
<path d="M581.729 147.738L599.798 135.71L601.554 138.348L594.84 142.817L594.946 142.976C595.33 142.941 595.803 142.944 596.365 142.986C596.928 143.027 597.517 143.212 598.135 143.54C598.758 143.863 599.349 144.446 599.909 145.287C600.637 146.381 601.011 147.541 601.029 148.768C601.048 149.995 600.7 151.199 599.983 152.38C599.271 153.567 598.183 154.648 596.718 155.623C595.254 156.598 593.835 157.19 592.464 157.399C591.097 157.604 589.848 157.468 588.716 156.991C587.589 156.51 586.662 155.722 585.934 154.628C585.386 153.805 585.075 153.039 585.003 152.332C584.935 151.63 584.989 151.009 585.163 150.468C585.338 149.927 585.517 149.482 585.699 149.131L585.552 148.91L583.444 150.314L581.729 147.738ZM590.226 145.812C589.273 146.447 588.53 147.141 587.996 147.895C587.462 148.649 587.167 149.423 587.11 150.217C587.058 151.006 587.285 151.781 587.79 152.539C588.315 153.328 588.962 153.847 589.732 154.099C590.508 154.346 591.348 154.364 592.251 154.153C593.159 153.948 594.065 153.544 594.971 152.941C595.865 152.346 596.578 151.676 597.11 150.932C597.645 150.193 597.94 149.42 597.996 148.61C598.055 147.807 597.821 147.008 597.292 146.214C596.783 145.449 596.155 144.934 595.409 144.667C594.666 144.405 593.852 144.374 592.966 144.574C592.08 144.773 591.167 145.186 590.226 145.812Z" fill="white"/>
<path d="M591.747 163.222L605.7 154.835L607.333 157.551L593.379 165.938L591.747 163.222ZM608.677 154.913C608.393 154.44 608.307 153.94 608.418 153.411C608.539 152.885 608.82 152.489 609.262 152.224C609.711 151.954 610.192 151.892 610.707 152.035C611.232 152.182 611.636 152.491 611.92 152.963C612.204 153.436 612.286 153.935 612.165 154.461C612.054 154.989 611.774 155.388 611.326 155.658C610.884 155.923 610.401 155.983 609.876 155.837C609.361 155.693 608.961 155.385 608.677 154.913Z" fill="white"/>
<path d="M605.718 167.928L597.26 172.607L595.726 169.835L609.971 161.954L611.444 164.616L609.125 165.898L609.222 166.075C610.158 165.985 611.048 166.163 611.892 166.608C612.739 167.06 613.459 167.821 614.051 168.89C614.588 169.861 614.854 170.824 614.849 171.78C614.851 172.731 614.564 173.629 613.989 174.472C613.414 175.315 612.539 176.062 611.364 176.712L602.303 181.724L600.769 178.951L609.496 174.123C610.529 173.552 611.187 172.837 611.47 171.977C611.76 171.114 611.645 170.213 611.125 169.273C610.77 168.63 610.314 168.135 609.759 167.788C609.207 167.448 608.582 167.281 607.883 167.288C607.194 167.298 606.472 167.511 605.718 167.928Z" fill="white"/>
<path d="M614.428 184.16L605.791 188.5L604.368 185.669L623.763 175.922L625.167 178.715L617.951 182.342L618.041 182.522C618.995 182.469 619.879 182.678 620.692 183.147C621.505 183.616 622.196 184.416 622.764 185.546C623.265 186.543 623.498 187.518 623.462 188.469C623.429 189.426 623.108 190.315 622.5 191.135C621.901 191.957 620.996 192.673 619.784 193.283L610.532 197.933L609.109 195.101L618.02 190.622C619.087 190.086 619.776 189.396 620.087 188.552C620.404 187.704 620.317 186.791 619.825 185.812C619.489 185.143 619.046 184.615 618.495 184.227C617.947 183.846 617.323 183.642 616.621 183.615C615.929 183.591 615.198 183.773 614.428 184.16Z" fill="white"/>
<path d="M614.874 207.93C614.231 206.546 613.987 205.191 614.141 203.865C614.296 202.538 614.811 201.325 615.687 200.224C616.562 199.124 617.762 198.219 619.287 197.51C620.818 196.798 622.29 196.461 623.702 196.498C625.114 196.535 626.377 196.922 627.491 197.658C628.605 198.395 629.483 199.455 630.127 200.839C630.77 202.223 631.015 203.579 630.86 204.905C630.705 206.232 630.187 207.447 629.305 208.55C628.423 209.653 627.217 210.561 625.685 211.273C624.161 211.982 622.695 212.316 621.29 212.276C619.884 212.236 618.624 211.848 617.51 211.111C616.396 210.375 615.518 209.314 614.874 207.93ZM617.291 206.819C617.708 207.716 618.291 208.349 619.039 208.718C619.787 209.087 620.621 209.229 621.54 209.144C622.462 209.066 623.397 208.807 624.346 208.366C625.288 207.928 626.086 207.382 626.74 206.727C627.403 206.076 627.838 205.344 628.044 204.531C628.251 203.718 628.146 202.863 627.729 201.966C627.309 201.063 626.72 200.425 625.962 200.052C625.208 199.686 624.366 199.544 623.438 199.625C622.518 199.709 621.588 199.97 620.646 200.408C619.698 200.849 618.895 201.394 618.238 202.042C617.584 202.697 617.157 203.429 616.957 204.239C616.76 205.055 616.871 205.915 617.291 206.819Z" fill="white"/>
<path d="M628.992 229.118C628.658 228.331 628.545 227.531 628.653 226.718C628.767 225.902 629.067 225.161 629.551 224.494C630.039 223.835 630.676 223.338 631.463 223.004C632.257 222.667 633.057 222.554 633.864 222.664C634.68 222.778 635.418 223.079 636.078 223.567C636.744 224.052 637.244 224.687 637.578 225.475C637.915 226.268 638.025 227.07 637.908 227.879C637.8 228.692 637.502 229.429 637.015 230.089C636.537 230.752 635.901 231.252 635.107 231.589C634.32 231.923 633.519 232.033 632.703 231.919C631.889 231.811 631.149 231.515 630.483 231.03C629.826 230.549 629.329 229.912 628.992 229.118Z" fill="white"/>
<path d="M648.299 254.582L646.773 252.096C647.071 251.85 647.326 251.544 647.539 251.179C647.755 250.821 647.881 250.399 647.918 249.914C647.954 249.428 647.852 248.88 647.611 248.269C647.282 247.434 646.82 246.811 646.225 246.4C645.637 245.986 645.05 245.894 644.465 246.125C643.959 246.324 643.625 246.672 643.464 247.169C643.303 247.665 643.288 248.37 643.42 249.282L643.816 251.906C644.043 253.427 643.956 254.661 643.555 255.609C643.154 256.557 642.417 257.242 641.346 257.664C640.439 258.022 639.526 258.077 638.609 257.831C637.701 257.589 636.863 257.08 636.094 256.305C635.328 255.536 634.703 254.54 634.222 253.317C633.553 251.621 633.369 250.095 633.67 248.738C633.978 247.379 634.754 246.314 635.999 245.542L637.556 248.221C636.883 248.691 636.465 249.278 636.301 249.98C636.144 250.68 636.241 251.474 636.59 252.361C636.971 253.327 637.476 254.021 638.105 254.441C638.74 254.859 639.351 254.953 639.936 254.722C640.409 254.536 640.737 254.202 640.919 253.72C641.104 253.244 641.136 252.613 641.015 251.825L640.567 249.039C640.332 247.499 640.433 246.252 640.87 245.298C641.309 244.35 642.068 243.664 643.146 243.239C644.04 242.886 644.92 242.828 645.788 243.063C646.655 243.299 647.45 243.783 648.172 244.516C648.9 245.247 649.488 246.181 649.937 247.318C650.582 248.955 650.734 250.383 650.395 251.603C650.062 252.82 649.363 253.813 648.299 254.582Z" fill="white"/>
<path d="M640.441 269.475C639.876 267.974 639.71 266.56 639.943 265.234C640.185 263.912 640.78 262.737 641.729 261.708C642.687 260.683 643.956 259.872 645.537 259.277C647.097 258.69 648.582 258.463 649.992 258.597C651.404 258.737 652.641 259.207 653.705 260.007C654.771 260.814 655.571 261.924 656.104 263.339C656.427 264.199 656.599 265.086 656.618 266C656.638 266.913 656.464 267.806 656.097 268.676C655.73 269.547 655.131 270.35 654.298 271.086C653.472 271.82 652.368 272.447 650.986 272.968L649.935 273.364L645.374 261.252L647.596 260.416L651.062 269.621C651.842 269.327 652.474 268.908 652.956 268.364C653.445 267.818 653.756 267.191 653.89 266.483C654.026 265.783 653.95 265.049 653.661 264.282C653.347 263.449 652.869 262.798 652.225 262.331C651.59 261.868 650.881 261.591 650.1 261.5C649.327 261.414 648.561 261.514 647.8 261.8L646.064 262.454C645.046 262.837 644.247 263.342 643.667 263.968C643.09 264.6 642.735 265.312 642.602 266.102C642.476 266.889 642.576 267.716 642.902 268.582C643.114 269.144 643.386 269.627 643.719 270.03C644.059 270.431 644.454 270.739 644.905 270.954C645.356 271.169 645.853 271.276 646.396 271.276L646.947 274.273C646.036 274.359 645.16 274.229 644.32 273.881C643.488 273.537 642.736 272.994 642.063 272.25C641.4 271.511 640.859 270.586 640.441 269.475ZM658.455 264.651L660.348 261.617L656.92 260.575L655.912 257.896L656.06 257.84L661.577 259.738L662.507 262.208L659.616 267.283L659.467 267.339L658.455 264.651Z" fill="white"/>
<path d="M654.629 279.014L645.535 282.292L644.461 279.31L659.776 273.791L660.807 276.652L658.315 277.551L658.383 277.74C659.321 277.8 660.171 278.117 660.934 278.691C661.699 279.271 662.289 280.137 662.703 281.287C663.079 282.33 663.189 283.323 663.033 284.266C662.884 285.206 662.458 286.046 661.757 286.788C661.055 287.529 660.072 288.127 658.809 288.582L649.068 292.093L647.993 289.112L657.376 285.73C658.486 285.33 659.249 284.728 659.666 283.925C660.089 283.119 660.118 282.211 659.754 281.2C659.505 280.509 659.134 279.948 658.641 279.517C658.15 279.093 657.559 278.829 656.868 278.725C656.186 278.626 655.44 278.722 654.629 279.014Z" fill="white"/>
<path d="M650.444 296.039L665.809 290.659L666.856 293.65L651.491 299.03L650.444 296.039ZM668.708 291.339C668.526 290.819 668.543 290.312 668.759 289.817C668.984 289.326 669.34 288.996 669.827 288.825C670.32 288.652 670.805 288.689 671.28 288.934C671.764 289.184 672.097 289.569 672.279 290.089C672.462 290.609 672.44 291.114 672.215 291.605C671.999 292.1 671.644 292.434 671.151 292.606C670.664 292.777 670.179 292.737 669.694 292.488C669.219 292.242 668.89 291.859 668.708 291.339Z" fill="white"/>
<path d="M654.965 310.127C654.474 308.682 654.376 307.309 654.672 306.006C654.968 304.704 655.61 303.553 656.598 302.552C657.586 301.552 658.876 300.781 660.468 300.24C662.067 299.696 663.567 299.518 664.967 299.706C666.366 299.894 667.581 300.414 668.609 301.265C669.638 302.117 670.398 303.266 670.89 304.71C671.381 306.155 671.479 307.529 671.183 308.831C670.887 310.133 670.242 311.286 669.247 312.289C668.252 313.291 666.955 314.065 665.356 314.608C663.764 315.15 662.272 315.326 660.878 315.135C659.485 314.945 658.274 314.424 657.246 313.572C656.217 312.721 655.457 311.572 654.965 310.127ZM657.487 309.281C657.806 310.217 658.317 310.909 659.022 311.356C659.726 311.803 660.54 312.034 661.463 312.048C662.388 312.069 663.345 311.911 664.336 311.575C665.319 311.24 666.171 310.782 666.891 310.202C667.621 309.625 668.131 308.944 668.424 308.158C668.716 307.372 668.703 306.51 668.384 305.574C668.064 304.631 667.546 303.933 666.833 303.482C666.122 303.037 665.301 302.805 664.369 302.786C663.446 302.772 662.493 302.932 661.509 303.266C660.519 303.603 659.663 304.059 658.94 304.633C658.22 305.214 657.717 305.896 657.431 306.68C657.148 307.471 657.166 308.337 657.487 309.281Z" fill="white"/>
<path d="M658.926 320.87L674.388 315.773L675.347 318.682L672.891 319.492L672.944 319.653C673.869 319.661 674.687 319.942 675.398 320.496C676.118 321.055 676.627 321.787 676.925 322.693C676.987 322.881 677.054 323.105 677.124 323.364C677.197 323.63 677.248 323.84 677.276 323.995L674.397 324.944C674.391 324.812 674.357 324.585 674.296 324.263C674.241 323.939 674.163 323.622 674.061 323.313C673.827 322.602 673.467 322.018 672.981 321.56C672.504 321.107 671.948 320.807 671.312 320.66C670.682 320.51 670.032 320.546 669.36 320.767L659.919 323.88L658.926 320.87Z" fill="white"/>
<path d="M826.458 504.86C826.458 504.86 762.45 251.137 693.965 195.758C625.48 140.379 551.773 215.368 458.275 187.744C364.777 160.12 282.378 -143 282.378 -143" stroke="#0D5A32" stroke-width="35"/>
<path d="M321.759 11.6788L342.539 3.35611L343.69 6.22909L341.24 7.21031L341.339 7.45629C341.722 7.50073 342.184 7.6009 342.726 7.7568C343.268 7.9127 343.808 8.21424 344.345 8.66142C344.888 9.10598 345.347 9.79725 345.723 10.7352C346.212 11.9553 346.34 13.1676 346.107 14.3722C345.874 15.5768 345.286 16.6838 344.343 17.6932C343.402 18.7092 342.116 19.5443 340.482 20.1984C338.849 20.8526 337.34 21.1413 335.954 21.0645C334.575 20.985 333.38 20.5959 332.369 19.897C331.365 19.1954 330.619 18.2347 330.13 17.0146C329.763 16.0963 329.616 15.2836 329.69 14.5763C329.768 13.8756 329.947 13.2785 330.229 12.785C330.511 12.2916 330.777 11.8919 331.027 11.5861L330.956 11.409L322.938 14.6206L321.759 11.6788ZM336.138 9.26535C335.075 9.69094 334.205 10.2181 333.529 10.8469C332.852 11.4757 332.404 12.1726 332.185 12.9377C331.973 13.7001 332.036 14.5044 332.375 15.3506C332.727 16.2295 333.254 16.8709 333.957 17.2747C334.665 17.6759 335.483 17.8658 336.411 17.8444C337.341 17.8295 338.312 17.6198 339.322 17.2152C340.319 16.8159 341.154 16.3065 341.826 15.6868C342.502 15.0738 342.95 14.3769 343.17 13.5961C343.393 12.8218 343.327 11.992 342.972 11.1065C342.63 10.2538 342.122 9.62024 341.446 9.20592C340.772 8.79816 339.982 8.60104 339.074 8.61456C338.166 8.62809 337.187 8.84502 336.138 9.26535Z" fill="white"/>
<path d="M335.878 31.1748C335.479 30.2233 335.295 29.2893 335.324 28.3729C335.361 27.4537 335.623 26.6273 336.113 25.8937C336.605 25.1666 337.343 24.5969 338.327 24.1847C339.174 23.8298 339.94 23.7006 340.624 23.7971C341.308 23.8937 341.926 24.152 342.477 24.5722C343.028 24.9924 343.529 25.5105 343.978 26.1265C344.428 26.7426 344.844 27.388 345.226 28.0629C345.707 28.9186 346.098 29.613 346.398 30.1462C346.704 30.6766 346.989 31.0362 347.252 31.2248C347.515 31.4135 347.822 31.4341 348.174 31.2867L348.242 31.258C349.096 30.9004 349.657 30.3821 349.924 29.7033C350.194 29.031 350.131 28.2223 349.735 27.2773C349.323 26.2932 348.779 25.6092 348.105 25.2251C347.44 24.8448 346.799 24.6577 346.181 24.6638L345.656 21.6547C346.705 21.5984 347.641 21.7656 348.463 22.1565C349.295 22.5511 350.01 23.1058 350.608 23.8205C351.213 24.5324 351.705 25.3413 352.084 26.2472C352.335 26.8468 352.53 27.5122 352.668 28.2436C352.815 28.9787 352.825 29.7173 352.7 30.4595C352.577 31.2081 352.249 31.9162 351.716 32.5835C351.19 33.2482 350.38 33.8099 349.285 34.2685L339.314 38.4455L338.118 35.591L340.171 34.7311L340.122 34.6137C339.665 34.5831 339.175 34.4552 338.651 34.2301C338.128 34.005 337.622 33.6464 337.132 33.1544C336.642 32.6623 336.224 32.0025 335.878 31.1748ZM338.49 30.8274C338.828 31.6355 339.277 32.2594 339.837 32.6992C340.399 33.1454 341.001 33.4106 341.641 33.4947C342.291 33.5826 342.912 33.5023 343.505 33.2539L345.441 32.4431C345.293 32.3825 345.111 32.2214 344.894 31.9598C344.686 31.702 344.471 31.3978 344.247 31.0471C344.03 30.6937 343.82 30.3487 343.618 30.0121C343.422 29.6728 343.258 29.3893 343.124 29.1619C342.815 28.6249 342.477 28.1573 342.111 27.759C341.748 27.3673 341.348 27.0982 340.911 26.9518C340.484 26.8091 340.009 26.8469 339.488 27.0653C338.765 27.3684 338.329 27.8649 338.181 28.5549C338.04 29.2422 338.143 29.9997 338.49 30.8274Z" fill="white"/>
<path d="M340.985 42.3129L355.913 35.817L357.135 38.6256L354.764 39.6575L354.832 39.813C355.753 39.7355 356.594 39.9401 357.353 40.4267C358.121 40.9169 358.695 41.5994 359.076 42.474C359.155 42.6554 359.241 42.8721 359.335 43.1239C359.432 43.3822 359.502 43.5869 359.545 43.7379L356.765 44.9474C356.747 44.8167 356.692 44.5939 356.602 44.2789C356.517 43.9611 356.41 43.6532 356.28 43.3552C355.982 42.6684 355.569 42.1196 355.044 41.7087C354.528 41.3015 353.946 41.0538 353.299 40.9655C352.658 40.8744 352.014 40.9699 351.366 41.2518L342.25 45.2187L340.985 42.3129Z" fill="white"/>
<path d="M347.143 57.1636C346.717 56.2241 346.506 55.2958 346.509 54.3789C346.519 53.459 346.758 52.6254 347.226 51.8779C347.697 51.1369 348.418 50.5462 349.39 50.1057C350.226 49.7264 350.988 49.5752 351.674 49.6519C352.361 49.7286 352.986 49.969 353.549 50.3731C354.112 50.7771 354.627 51.2806 355.095 51.8834C355.562 52.4862 355.996 53.1193 356.398 53.7829C356.903 54.6243 357.314 55.3072 357.629 55.8314C357.951 56.3528 358.246 56.704 358.514 56.8849C358.782 57.0659 359.09 57.0776 359.438 56.9201L359.505 56.8895C360.348 56.5073 360.893 55.9731 361.141 55.2868C361.391 54.607 361.305 53.8005 360.882 52.8673C360.441 51.8956 359.879 51.2275 359.194 50.8631C358.518 50.5021 357.872 50.3336 357.254 50.3576L356.642 47.3649C357.689 47.2783 358.629 47.4184 359.463 47.7854C360.306 48.1558 361.036 48.6896 361.655 49.3867C362.28 50.0809 362.795 50.8752 363.201 51.7698C363.469 52.3618 363.683 53.0214 363.842 53.7484C364.01 54.479 364.042 55.217 363.938 55.9625C363.836 56.7144 363.529 57.4316 363.016 58.1141C362.51 58.7936 361.716 59.3785 360.634 59.8686L350.788 64.332L349.51 61.5133L351.538 60.5943L351.485 60.4785C351.027 60.4611 350.533 60.3474 350.004 60.1375C349.474 59.9276 348.958 59.5838 348.454 59.1061C347.951 58.6284 347.514 57.9809 347.143 57.1636ZM349.744 56.7409C350.106 57.5389 350.573 58.1496 351.145 58.573C351.72 59.0028 352.329 59.2505 352.971 59.316C353.623 59.3851 354.242 59.2869 354.828 59.0214L356.739 58.155C356.589 58.0987 356.402 57.943 356.178 57.6878C355.963 57.4361 355.739 57.1382 355.505 56.7941C355.278 56.4471 355.059 56.1083 354.847 55.7777C354.641 55.4442 354.468 55.1657 354.328 54.9421C354.004 54.4143 353.653 53.9567 353.275 53.5692C352.901 53.1881 352.493 52.9307 352.053 52.7969C351.621 52.6666 351.148 52.7182 350.633 52.9516C349.919 53.2754 349.498 53.7843 349.37 54.4783C349.249 55.1694 349.374 55.9236 349.744 56.7409Z" fill="white"/>
<path d="M357.662 79.5969C357.207 78.6708 356.968 77.7495 356.943 76.8329C356.924 75.9132 357.137 75.0726 357.582 74.3111C358.03 73.556 358.732 72.9433 359.69 72.4731C360.515 72.0682 361.271 71.8936 361.96 71.9491C362.648 72.0047 363.28 72.2257 363.856 72.6123C364.431 72.9988 364.962 73.4861 365.447 74.0743C365.933 74.6624 366.386 75.2819 366.808 75.9327C367.34 76.7582 367.771 77.4281 368.102 77.9424C368.44 78.4536 368.745 78.7955 369.019 78.9682C369.293 79.1408 369.601 79.143 369.943 78.9749L370.01 78.9422C370.841 78.5342 371.369 77.9835 371.595 77.2899C371.825 76.6027 371.714 75.7992 371.262 74.8796C370.792 73.9218 370.209 73.2714 369.513 72.9282C368.827 72.5883 368.175 72.4398 367.559 72.4827L366.855 69.5103C367.899 69.3915 368.843 69.5026 369.687 69.8437C370.541 70.188 371.288 70.699 371.927 71.3767C372.574 72.0514 373.113 72.8295 373.546 73.7111C373.832 74.2946 374.066 74.9473 374.247 75.6691C374.438 76.3941 374.493 77.1308 374.412 77.8791C374.333 78.6338 374.048 79.3601 373.557 80.0581C373.071 80.7529 372.296 81.3619 371.23 81.8851L361.526 86.6496L360.162 83.8715L362.16 82.8906L362.104 82.7764C361.646 82.7731 361.149 82.6747 360.613 82.4812C360.077 82.2877 359.55 81.96 359.032 81.4981C358.514 81.0361 358.057 80.4024 357.662 79.5969ZM360.249 79.0942C360.635 79.8807 361.121 80.4767 361.705 80.8823C362.293 81.2942 362.909 81.523 363.554 81.5688C364.208 81.6177 364.823 81.5005 365.4 81.2172L367.284 80.2923C367.133 80.2406 366.941 80.0907 366.709 79.8426C366.486 79.5976 366.253 79.3068 366.009 78.9701C365.771 78.6302 365.541 78.2983 365.319 77.9744C365.104 77.6473 364.922 77.3743 364.776 77.1552C364.435 76.6376 364.07 76.191 363.681 75.8153C363.295 75.4459 362.879 75.2012 362.435 75.081C362 74.9641 361.528 75.0302 361.021 75.2793C360.317 75.625 359.912 76.1466 359.805 76.8442C359.706 77.5387 359.853 78.2887 360.249 79.0942Z" fill="white"/>
<path d="M388.005 101.962L370.875 104.5L369.264 101.515L380.781 88.5782L382.397 91.5722L373.331 101.151L373.411 101.3L386.389 98.9685L388.005 101.962Z" fill="white"/>
<path d="M375.162 112.237L389.31 104.182L390.878 106.936L376.73 114.991L375.162 112.237ZM392.285 104.33C392.012 103.851 391.937 103.349 392.061 102.823C392.194 102.3 392.485 101.911 392.933 101.656C393.387 101.397 393.87 101.346 394.382 101.502C394.903 101.661 395.3 101.979 395.573 102.458C395.845 102.937 395.915 103.438 395.782 103.961C395.658 104.487 395.37 104.879 394.915 105.138C394.467 105.393 393.982 105.441 393.461 105.283C392.949 105.127 392.557 104.809 392.285 104.33Z" fill="white"/>
<path d="M381.713 124.087C381.031 122.963 380.709 121.787 380.747 120.556C380.795 119.329 381.201 118.139 381.966 116.989C382.74 115.841 383.879 114.81 385.383 113.897C386.887 112.984 388.325 112.453 389.699 112.305C391.076 112.163 392.316 112.361 393.419 112.898C394.522 113.435 395.413 114.262 396.092 115.379C396.616 116.243 396.893 117.025 396.922 117.727C396.961 118.431 396.878 119.043 396.674 119.564C396.473 120.091 396.277 120.524 396.086 120.863L396.185 121.026L403.079 116.84L404.724 119.548L386.171 130.816L384.565 128.17L386.73 126.855L386.593 126.629C386.198 126.646 385.716 126.615 385.149 126.538C384.585 126.468 384 126.253 383.393 125.893C382.786 125.534 382.226 124.932 381.713 124.087ZM384.386 123.282C384.859 124.061 385.464 124.594 386.201 124.882C386.948 125.173 387.774 125.233 388.68 125.064C389.589 124.9 390.533 124.521 391.511 123.927C392.478 123.34 393.239 122.688 393.795 121.97C394.351 121.252 394.668 120.501 394.746 119.718C394.824 118.935 394.623 118.148 394.143 117.356C393.648 116.541 393.024 115.99 392.271 115.703C391.518 115.416 390.692 115.356 389.792 115.522C388.896 115.694 387.99 116.059 387.072 116.616C386.142 117.181 385.389 117.828 384.815 118.557C384.241 119.286 383.902 120.054 383.797 120.862C383.702 121.672 383.898 122.478 384.386 123.282Z" fill="white"/>
<path d="M390.851 138.601C390.275 137.745 389.913 136.865 389.764 135.96C389.621 135.052 389.718 134.19 390.055 133.375C390.397 132.566 391.01 131.864 391.895 131.268C392.657 130.755 393.383 130.48 394.073 130.442C394.762 130.403 395.418 130.537 396.041 130.842C396.664 131.147 397.255 131.557 397.816 132.074C398.377 132.591 398.91 133.144 399.417 133.731C400.055 134.477 400.573 135.082 400.971 135.547C401.374 136.008 401.724 136.305 402.018 136.439C402.313 136.573 402.618 136.533 402.935 136.32L402.996 136.279C403.764 135.762 404.213 135.145 404.343 134.427C404.478 133.715 404.259 132.934 403.686 132.084C403.091 131.199 402.425 130.633 401.689 130.388C400.963 130.144 400.297 130.085 399.692 130.211L398.592 127.362C399.61 127.103 400.56 127.085 401.443 127.308C402.336 127.534 403.145 127.939 403.871 128.523C404.602 129.104 405.242 129.802 405.791 130.617C406.154 131.156 406.474 131.771 406.751 132.462C407.038 133.154 407.192 133.877 407.213 134.629C407.238 135.387 407.054 136.146 406.662 136.904C406.275 137.658 405.589 138.366 404.605 139.029L395.636 145.065L393.908 142.498L395.754 141.255L395.683 141.149C395.229 141.208 394.723 141.178 394.166 141.059C393.609 140.94 393.043 140.687 392.467 140.299C391.891 139.912 391.352 139.346 390.851 138.601ZM393.346 137.753C393.835 138.479 394.397 139.004 395.032 139.327C395.67 139.655 396.311 139.798 396.956 139.756C397.61 139.716 398.204 139.517 398.738 139.158L400.479 137.986C400.322 137.955 400.112 137.833 399.848 137.618C399.594 137.406 399.324 137.149 399.036 136.849C398.755 136.544 398.482 136.247 398.218 135.956C397.96 135.661 397.743 135.415 397.568 135.218C397.16 134.751 396.738 134.358 396.302 134.039C395.869 133.725 395.425 133.539 394.968 133.48C394.521 133.423 394.063 133.553 393.594 133.868C392.943 134.306 392.612 134.878 392.602 135.583C392.597 136.285 392.845 137.008 393.346 137.753Z" fill="white"/>
<path d="M409.331 156.56C408.794 155.895 408.466 155.156 408.346 154.345C408.232 153.529 408.316 152.734 408.599 151.96C408.887 151.192 409.363 150.539 410.028 150.001C410.699 149.46 411.437 149.131 412.243 149.016C413.059 148.901 413.851 148.988 414.62 149.276C415.393 149.559 416.049 150.033 416.586 150.698C417.128 151.369 417.454 152.109 417.564 152.92C417.684 153.731 417.6 154.521 417.312 155.29C417.034 156.059 416.56 156.715 415.89 157.256C415.225 157.794 414.484 158.119 413.668 158.234C412.857 158.354 412.064 158.272 411.29 157.989C410.526 157.707 409.873 157.23 409.331 156.56Z" fill="white"/>
<path d="M422.58 177.301C421.408 176.205 420.634 175.011 420.256 173.718C419.888 172.426 419.902 171.108 420.297 169.765C420.703 168.422 421.482 167.134 422.636 165.901C423.776 164.683 425.007 163.822 426.33 163.319C427.658 162.82 428.976 162.693 430.284 162.94C431.597 163.191 432.806 163.834 433.91 164.867C434.58 165.494 435.127 166.214 435.549 167.025C435.97 167.835 436.209 168.712 436.266 169.655C436.322 170.598 436.14 171.584 435.719 172.613C435.303 173.636 434.591 174.687 433.582 175.766L432.814 176.586L423.365 167.744L424.987 166.01L432.169 172.731C432.738 172.122 433.119 171.467 433.311 170.766C433.507 170.059 433.509 169.359 433.316 168.666C433.128 167.977 432.735 167.353 432.137 166.793C431.486 166.185 430.769 165.813 429.985 165.679C429.211 165.545 428.453 165.61 427.712 165.875C426.981 166.139 426.338 166.568 425.782 167.161L424.515 168.515C423.772 169.31 423.278 170.116 423.036 170.934C422.798 171.757 422.794 172.552 423.025 173.319C423.26 174.081 423.716 174.778 424.391 175.411C424.83 175.821 425.288 176.133 425.765 176.347C426.247 176.556 426.737 176.658 427.237 176.651C427.737 176.644 428.23 176.521 428.717 176.28L430.538 178.724C429.759 179.204 428.915 179.475 428.008 179.535C427.11 179.595 426.195 179.44 425.263 179.071C424.341 178.702 423.446 178.112 422.58 177.301Z" fill="white"/>
<path d="M447.281 180.463L444.626 179.256C444.735 178.885 444.776 178.489 444.748 178.067C444.727 177.649 444.596 177.229 444.355 176.806C444.114 176.383 443.722 175.986 443.181 175.613C442.441 175.105 441.71 174.847 440.987 174.839C440.268 174.825 439.73 175.077 439.374 175.595C439.066 176.043 438.984 176.518 439.128 177.02C439.271 177.522 439.653 178.114 440.273 178.797L442.068 180.751C443.106 181.885 443.724 182.957 443.921 183.967C444.119 184.977 443.891 185.957 443.239 186.906C442.687 187.71 441.962 188.266 441.063 188.575C440.175 188.882 439.196 188.929 438.125 188.716C437.059 188.506 435.985 188.03 434.902 187.285C433.4 186.253 432.394 185.09 431.885 183.797C431.38 182.499 431.428 181.181 432.029 179.845L434.818 181.196C434.523 181.962 434.504 182.682 434.761 183.356C435.022 184.024 435.545 184.628 436.331 185.168C437.187 185.757 437.994 186.049 438.75 186.046C439.511 186.037 440.069 185.774 440.425 185.255C440.713 184.836 440.798 184.376 440.68 183.874C440.568 183.377 440.241 182.835 439.7 182.25L437.772 180.191C436.716 179.045 436.102 177.955 435.93 176.919C435.765 175.888 436.01 174.895 436.666 173.94C437.211 173.148 437.908 172.607 438.759 172.317C439.61 172.027 440.539 171.985 441.548 172.189C442.56 172.387 443.57 172.833 444.577 173.525C446.027 174.522 446.953 175.621 447.353 176.822C447.758 178.017 447.734 179.231 447.281 180.463Z" fill="white"/>
<path d="M449.265 195.004C447.799 194.428 446.666 193.6 445.869 192.519C445.08 191.435 444.634 190.193 444.531 188.794C444.428 187.395 444.675 185.935 445.272 184.416C445.877 182.877 446.7 181.633 447.741 180.683C448.785 179.727 449.964 179.123 451.277 178.873C452.59 178.622 453.96 178.777 455.387 179.338C456.538 179.79 457.48 180.407 458.213 181.188C458.949 181.963 459.443 182.841 459.695 183.821C459.955 184.803 459.937 185.825 459.641 186.886L456.771 185.758C456.892 184.985 456.771 184.232 456.407 183.496C456.049 182.764 455.4 182.213 454.46 181.843C453.638 181.52 452.832 181.454 452.044 181.645C451.264 181.832 450.547 182.257 449.892 182.918C449.24 183.573 448.702 184.439 448.278 185.518C447.844 186.623 447.637 187.642 447.657 188.576C447.677 189.51 447.907 190.318 448.345 190.999C448.79 191.682 449.43 192.188 450.266 192.516C450.825 192.736 451.371 192.833 451.905 192.808C452.448 192.778 452.95 192.63 453.412 192.363C453.88 192.1 454.284 191.719 454.623 191.222L457.494 192.35C457.003 193.289 456.341 194.038 455.506 194.598C454.671 195.159 453.719 195.483 452.652 195.572C451.591 195.664 450.462 195.475 449.265 195.004Z" fill="white"/>
<path d="M465.241 199.348C463.747 199.039 462.513 198.428 461.54 197.512C460.567 196.597 459.9 195.461 459.538 194.102C459.177 192.743 459.166 191.24 459.506 189.593C459.847 187.939 460.454 186.556 461.325 185.445C462.197 184.333 463.26 183.55 464.516 183.095C465.771 182.639 467.146 182.566 468.641 182.875C470.136 183.183 471.369 183.795 472.342 184.71C473.315 185.625 473.981 186.765 474.342 188.131C474.702 189.497 474.711 191.007 474.37 192.661C474.03 194.308 473.425 195.683 472.555 196.788C471.685 197.893 470.622 198.673 469.367 199.128C468.111 199.583 466.736 199.656 465.241 199.348ZM465.789 196.744C466.758 196.944 467.614 196.854 468.356 196.473C469.098 196.093 469.71 195.508 470.19 194.72C470.677 193.933 471.026 193.027 471.237 192.003C471.447 190.986 471.484 190.02 471.349 189.104C471.221 188.183 470.893 187.398 470.363 186.747C469.834 186.097 469.085 185.672 468.116 185.472C467.14 185.27 466.277 185.363 465.526 185.749C464.782 186.137 464.166 186.727 463.678 187.521C463.198 188.309 462.853 189.212 462.643 190.229C462.431 191.254 462.39 192.223 462.519 193.137C462.655 194.052 462.988 194.832 463.519 195.475C464.057 196.12 464.814 196.543 465.789 196.744Z" fill="white"/>
<path d="M485.161 185.497L484.882 188.026L476.043 187.051L476.322 184.522L485.161 185.497ZM479.12 180.907L482.27 181.255L480.582 196.562C480.514 197.173 480.555 197.643 480.703 197.972C480.853 198.294 481.065 198.527 481.341 198.671C481.624 198.809 481.938 198.897 482.282 198.935C482.535 198.963 482.758 198.97 482.951 198.956C483.145 198.942 483.295 198.93 483.403 198.92L483.685 201.585C483.495 201.635 483.227 201.677 482.882 201.71C482.536 201.75 482.11 201.746 481.604 201.697C480.774 201.619 480.017 201.387 479.335 200.999C478.653 200.611 478.126 200.069 477.755 199.374C477.384 198.679 477.252 197.844 477.36 196.867L479.12 180.907Z" fill="white"/>
<path d="M486.477 201.859L487.351 185.602L490.515 185.772L489.642 202.029L486.477 201.859ZM489.084 183.18C488.533 183.15 488.071 182.941 487.695 182.553C487.327 182.159 487.157 181.704 487.185 181.189C487.213 180.666 487.431 180.232 487.838 179.886C488.254 179.534 488.736 179.372 489.287 179.402C489.837 179.431 490.296 179.643 490.664 180.038C491.04 180.426 491.213 180.881 491.185 181.403C491.158 181.919 490.936 182.352 490.521 182.705C490.113 183.051 489.634 183.209 489.084 183.18Z" fill="white"/>
<path d="M505.833 189.767L502.969 190.318C502.843 189.952 502.647 189.605 502.381 189.277C502.122 188.949 501.772 188.682 501.33 188.477C500.889 188.271 500.34 188.173 499.683 188.183C498.786 188.196 498.04 188.408 497.445 188.82C496.851 189.224 496.558 189.741 496.567 190.37C496.575 190.914 496.783 191.349 497.19 191.675C497.598 192.001 498.252 192.264 499.152 192.462L501.747 193.018C503.25 193.342 504.374 193.859 505.119 194.569C505.865 195.279 506.246 196.209 506.263 197.361C506.277 198.336 506.007 199.209 505.453 199.98C504.906 200.745 504.134 201.35 503.138 201.795C502.148 202.241 500.996 202.473 499.682 202.493C497.859 202.519 496.366 202.153 495.203 201.393C494.04 200.625 493.317 199.523 493.034 198.086L496.09 197.574C496.293 198.37 496.694 198.968 497.293 199.369C497.892 199.763 498.669 199.953 499.623 199.939C500.661 199.924 501.488 199.696 502.104 199.256C502.719 198.809 503.022 198.271 503.013 197.642C503.005 197.133 502.808 196.709 502.422 196.368C502.042 196.027 501.462 195.774 500.683 195.609L497.918 195.046C496.394 194.722 495.263 194.187 494.524 193.442C493.792 192.697 493.418 191.745 493.401 190.586C493.387 189.625 493.643 188.78 494.169 188.052C494.696 187.323 495.429 186.751 496.37 186.334C497.311 185.91 498.392 185.69 499.614 185.672C501.374 185.646 502.764 186.007 503.785 186.755C504.807 187.496 505.489 188.5 505.833 189.767Z" fill="white"/>
<path d="M509.338 202.043L507.457 185.872L510.478 185.521L510.784 188.153L510.984 188.129C511.218 187.199 511.688 186.44 512.395 185.853C513.101 185.258 513.988 184.899 515.054 184.775C516.135 184.649 517.07 184.797 517.859 185.217C518.654 185.637 519.279 186.268 519.733 187.112L519.901 187.092C520.187 186.184 520.721 185.425 521.504 184.815C522.286 184.197 523.259 183.821 524.424 183.685C525.891 183.515 527.141 183.835 528.174 184.647C529.215 185.458 529.843 186.79 530.058 188.642L531.32 199.486L528.172 199.852L526.945 189.303C526.817 188.208 526.427 187.45 525.773 187.028C525.119 186.606 524.379 186.443 523.55 186.54C522.526 186.659 521.766 187.067 521.271 187.765C520.775 188.456 520.584 189.293 520.698 190.275L521.897 200.582L518.76 200.947L517.51 190.198C517.408 189.321 517.052 188.647 516.442 188.177C515.833 187.708 515.09 187.524 514.212 187.626C513.616 187.695 513.083 187.917 512.614 188.292C512.152 188.659 511.799 189.137 511.554 189.728C511.317 190.317 511.241 190.977 511.326 191.707L512.485 201.677L509.338 202.043Z" fill="white"/>
<path d="M542.075 197.697C540.576 197.982 539.202 197.887 537.954 197.412C536.706 196.937 535.655 196.141 534.803 195.023C533.95 193.905 533.367 192.519 533.053 190.867C532.737 189.208 532.77 187.699 533.152 186.339C533.533 184.979 534.218 183.849 535.205 182.949C536.192 182.05 537.435 181.457 538.934 181.172C540.434 180.887 541.807 180.982 543.056 181.457C544.304 181.932 545.355 182.732 546.209 183.857C547.063 184.982 547.648 186.374 547.963 188.033C548.277 189.685 548.243 191.188 547.86 192.541C547.477 193.894 546.792 195.02 545.805 195.92C544.818 196.819 543.575 197.412 542.075 197.697ZM541.589 195.081C542.561 194.897 543.317 194.487 543.858 193.852C544.399 193.216 544.741 192.443 544.884 191.531C545.034 190.618 545.012 189.648 544.817 188.62C544.623 187.6 544.288 186.692 543.814 185.898C543.344 185.095 542.741 184.494 542.004 184.095C541.266 183.696 540.411 183.589 539.439 183.773C538.461 183.96 537.698 184.374 537.151 185.018C536.612 185.66 536.268 186.441 536.119 187.361C535.976 188.273 536.001 189.239 536.195 190.259C536.39 191.287 536.722 192.198 537.19 192.994C537.664 193.788 538.27 194.382 539.006 194.774C539.749 195.165 540.61 195.267 541.589 195.081Z" fill="white"/>
<path d="M565.391 188.36C564.557 188.546 563.749 188.512 562.969 188.259C562.187 187.999 561.512 187.571 560.945 186.973C560.384 186.375 560.01 185.658 559.824 184.823C559.636 183.982 559.67 183.175 559.924 182.401C560.184 181.619 560.614 180.948 561.213 180.387C561.81 179.819 562.526 179.443 563.36 179.256C564.202 179.069 565.01 179.106 565.785 179.367C566.565 179.62 567.236 180.046 567.797 180.645C568.363 181.235 568.74 181.951 568.927 182.792C569.113 183.627 569.077 184.435 568.817 185.217C568.564 185.997 568.138 186.671 567.541 187.239C566.949 187.798 566.233 188.172 565.391 188.36Z" fill="white"/>
<path d="M580.601 172.448L583.705 171.812L587.19 188.797C587.409 189.863 587.399 190.803 587.162 191.616C586.932 192.428 586.479 193.102 585.802 193.637C585.133 194.171 584.248 194.551 583.147 194.777C583.037 194.799 582.933 194.821 582.836 194.841C582.732 194.862 582.624 194.881 582.512 194.896L581.965 192.228C582.062 192.208 582.148 192.19 582.224 192.175C582.293 192.161 582.373 192.144 582.463 192.126C583.197 191.975 583.686 191.669 583.93 191.208C584.183 190.752 584.233 190.154 584.081 189.413L580.601 172.448ZM581.633 169.672C581.093 169.783 580.592 169.698 580.131 169.418C579.675 169.129 579.395 168.732 579.291 168.227C579.186 167.715 579.287 167.24 579.594 166.802C579.906 166.355 580.333 166.077 580.873 165.966C581.412 165.855 581.91 165.944 582.366 166.233C582.828 166.513 583.111 166.91 583.216 167.422C583.32 167.927 583.215 168.403 582.903 168.849C582.596 169.287 582.173 169.562 581.633 169.672Z" fill="white"/>
<path d="M598.146 186.01C596.642 186.266 595.27 186.144 594.031 185.645C592.793 185.146 591.758 184.33 590.927 183.195C590.096 182.061 589.54 180.664 589.258 179.006C588.975 177.342 589.038 175.833 589.446 174.481C589.854 173.128 590.56 172.012 591.564 171.132C592.569 170.252 593.823 169.684 595.328 169.428C596.832 169.172 598.204 169.294 599.443 169.793C600.681 170.292 601.717 171.112 602.549 172.253C603.381 173.395 603.938 174.798 604.221 176.463C604.503 178.121 604.439 179.622 604.03 180.968C603.621 182.313 602.914 183.426 601.91 184.306C600.905 185.186 599.651 185.754 598.146 186.01ZM597.711 183.386C598.686 183.22 599.45 182.825 600.004 182.201C600.557 181.576 600.914 180.809 601.075 179.901C601.243 178.99 601.239 178.02 601.064 176.989C600.89 175.965 600.573 175.051 600.114 174.248C599.661 173.436 599.069 172.823 598.339 172.41C597.61 171.996 596.757 171.873 595.782 172.038C594.8 172.205 594.029 172.605 593.47 173.238C592.918 173.869 592.559 174.643 592.392 175.56C592.231 176.469 592.238 177.436 592.412 178.46C592.587 179.491 592.901 180.408 593.353 181.213C593.812 182.017 594.406 182.622 595.135 183.028C595.87 183.434 596.729 183.553 597.711 183.386Z" fill="white"/>
<path d="M621.227 166.566L616.786 183.304L613.407 183.603L606.077 167.91L609.466 167.609L614.68 179.724L614.849 179.709L617.838 166.866L621.227 166.566Z" fill="white"/>
<path d="M632.532 183.305C630.929 183.246 629.561 182.853 628.428 182.126C627.303 181.391 626.449 180.388 625.866 179.115C625.291 177.835 625.034 176.352 625.097 174.664C625.158 172.997 625.522 171.54 626.191 170.292C626.866 169.044 627.778 168.084 628.927 167.412C630.083 166.741 631.416 166.433 632.927 166.488C633.845 166.522 634.729 166.706 635.58 167.042C636.43 167.377 637.186 167.882 637.847 168.557C638.508 169.232 639.017 170.095 639.374 171.148C639.732 172.193 639.883 173.454 639.829 174.93L639.788 176.052L626.855 175.577L626.943 173.205L636.772 173.566C636.802 172.733 636.66 171.988 636.345 171.333C636.03 170.671 635.572 170.142 634.971 169.745C634.378 169.349 633.671 169.135 632.852 169.105C631.963 169.072 631.178 169.263 630.498 169.676C629.825 170.083 629.296 170.629 628.91 171.315C628.532 171.994 628.328 172.739 628.298 173.551L628.23 175.405C628.19 176.492 628.347 177.424 628.7 178.201C629.06 178.978 629.579 179.58 630.256 180.008C630.934 180.429 631.735 180.656 632.66 180.69C633.26 180.712 633.81 180.648 634.311 180.496C634.812 180.338 635.248 180.093 635.621 179.76C635.994 179.427 636.285 179.01 636.494 178.509L639.472 179.159C639.2 180.033 638.74 180.79 638.095 181.431C637.456 182.065 636.664 182.549 635.719 182.882C634.78 183.208 633.718 183.349 632.532 183.305Z" fill="white"/>
<path d="M643.939 183.371L648.141 167.643L651.08 168.428L650.396 170.988L650.591 171.04C651.15 170.261 651.866 169.728 652.74 169.442C653.615 169.15 654.572 169.142 655.61 169.419C656.661 169.7 657.476 170.181 658.054 170.862C658.64 171.545 658.988 172.363 659.1 173.314L659.264 173.358C659.863 172.618 660.639 172.109 661.592 171.83C662.546 171.543 663.59 171.552 664.723 171.854C666.149 172.236 667.194 172.994 667.856 174.129C668.525 175.266 668.619 176.735 668.137 178.537L665.319 189.084L662.257 188.266L664.999 178.006C665.283 176.941 665.199 176.092 664.747 175.459C664.294 174.826 663.665 174.402 662.86 174.187C661.863 173.921 661.006 174.021 660.289 174.488C659.574 174.947 659.089 175.655 658.833 176.611L656.155 186.635L653.103 185.82L655.897 175.365C656.125 174.512 656.042 173.755 655.648 173.094C655.254 172.433 654.631 171.988 653.777 171.76C653.197 171.605 652.62 171.616 652.047 171.791C651.482 171.962 650.977 172.277 650.533 172.736C650.095 173.197 649.781 173.782 649.592 174.492L647.001 184.189L643.939 183.371Z" fill="white"/>
</svg>
